<mxfile host="app.diagrams.net" agent="Mozilla/5.0 (Windows NT 10.0; Win64; x64) AppleWebKit/537.36 (KHTML, like Gecko) Chrome/128.0.0.0 YaBrowser/24.10.0.0 Safari/537.36" version="25.0.1">
  <diagram name="Page-1" id="Page-1">
    <mxGraphModel dx="1386" dy="791" grid="1" gridSize="10" guides="1" tooltips="1" connect="1" arrows="1" fold="1" page="1" pageScale="1" pageWidth="1442" pageHeight="2040" math="0" shadow="0">
      <root>
        <mxCell id="0" />
        <mxCell id="1" parent="0" />
        <mxCell id="tu6HVv9gCv60EJW4BONB-18" style="vsdxID=9;edgeStyle=none;startArrow=none;endArrow=classic;startSize=5;endSize=5;strokeColor=#000000;spacingTop=0;spacingBottom=0;spacingLeft=0;spacingRight=0;verticalAlign=middle;html=1;labelBackgroundColor=#ffffff;rounded=1;exitX=0.5;exitY=1;exitDx=0;exitDy=0;exitPerimeter=0;entryX=0.5;entryY=0;entryDx=0;entryDy=0;entryPerimeter=0" edge="1" parent="1">
          <mxGeometry relative="1" as="geometry">
            <mxPoint x="675" y="410" as="sourcePoint" />
            <mxPoint x="675" y="450" as="targetPoint" />
            <Array capacity="4" as="points" />
            <mxPoint y="124" as="offset" />
          </mxGeometry>
        </mxCell>
        <mxCell id="tu6HVv9gCv60EJW4BONB-22" value="" style="endArrow=classic;html=1;rounded=0;" edge="1" parent="1" target="9">
          <mxGeometry width="50" height="50" relative="1" as="geometry">
            <mxPoint x="675" y="580" as="sourcePoint" />
            <mxPoint x="725" y="530" as="targetPoint" />
          </mxGeometry>
        </mxCell>
        <mxCell id="2" value="Background" parent="0" />
        <mxCell id="3" value="&lt;font style=&quot;font-size:13px;font-family:Times New Roman;color:#000000;direction:ltr;letter-spacing:0px;line-height:120.00001%;opacity:1&quot;&gt;Начало&lt;/font&gt;" style="verticalAlign=middle;align=center;vsdxID=1;fillColor=#ffffff;gradientColor=none;shape=stencil(pZDBDsIgEER/ZbN3UjTpDfiXjd0WIkKzoG3/vmiN8eTF02ZeZieZMcXTzFCq5CsvYajeYkieJVR0ZszCk+R7GpyZqXpnbvnBsFpUGmGz2GvsnCG5gDR47hFkO26TJ/0xwapoDUVJrlRDThYbiyQTq/asxkhT8yOUhXl+y1/R6v/k7ig0hhiP9k/2Xbh7TeN2);strokeColor=#000000;spacingTop=-3;spacingBottom=-3;spacingLeft=-3;spacingRight=-3;labelBackgroundColor=none;rounded=0;html=1;whiteSpace=wrap;" parent="2" vertex="1">
          <mxGeometry x="570" y="45" width="210" height="75" as="geometry" />
        </mxCell>
        <mxCell id="4" value="&lt;font style=&quot;font-size:13px;font-family:Times New Roman;color:#000000;direction:ltr;letter-spacing:0px;line-height:120.00001%;opacity:1&quot;&gt;Объявление переменной типа&amp;nbsp;&lt;/font&gt;&lt;div&gt;&lt;font style=&quot;font-size:13px;font-family:Times New Roman;color:#000000;direction:ltr;letter-spacing:0px;line-height:120.00001%;opacity:1&quot;&gt;string:&lt;/font&gt;&lt;div&gt;&lt;font style=&quot;direction: ltr; line-height: 120%; opacity: 1;&quot;&gt;&lt;font face=&quot;Times New Roman&quot;&gt;&lt;span style=&quot;font-size: 13px;&quot;&gt;cnst1 = &quot;,&quot;&lt;/span&gt;&lt;/font&gt;&lt;/font&gt;&lt;/div&gt;&lt;div&gt;&lt;font style=&quot;direction: ltr; line-height: 120%; opacity: 1;&quot;&gt;&lt;font face=&quot;Times New Roman&quot;&gt;&lt;span style=&quot;font-size: 13px;&quot;&gt;&amp;nbsp;cnst5 =&amp;nbsp;&lt;/span&gt;&lt;/font&gt;&lt;span style=&quot;background-color: initial; font-size: 13px;&quot;&gt;&lt;font face=&quot;Times New Roman&quot;&gt;&quot;Богу&quot;&lt;/font&gt;&lt;/span&gt;&lt;/font&gt;&lt;/div&gt;&lt;div&gt;&lt;font style=&quot;direction: ltr; line-height: 120%; opacity: 1;&quot;&gt;&lt;span style=&quot;background-color: initial; font-size: 13px;&quot;&gt;&lt;font face=&quot;Times New Roman&quot;&gt;&amp;nbsp;cnst6 =&amp;nbsp;&lt;/font&gt;&lt;/span&gt;&lt;span style=&quot;background-color: initial; font-size: 13px;&quot;&gt;&lt;font face=&quot;Times New Roman&quot;&gt;&quot;с&quot;&lt;/font&gt;&lt;/span&gt;&lt;/font&gt;&lt;/div&gt;&lt;div&gt;&lt;font style=&quot;direction: ltr; line-height: 120%; opacity: 1;&quot;&gt;&lt;span style=&quot;background-color: initial; font-size: 13px;&quot;&gt;&lt;font face=&quot;Times New Roman&quot;&gt;&amp;nbsp;&lt;/font&gt;&lt;/span&gt;&lt;span style=&quot;background-color: initial; font-size: 13px;&quot;&gt;&lt;font face=&quot;Times New Roman&quot;&gt;&quot;cnst7 = всем&quot;&lt;/font&gt;&lt;/span&gt;&lt;br&gt;&lt;/font&gt;&lt;/div&gt;&lt;/div&gt;" style="verticalAlign=middle;align=center;vsdxID=2;fillColor=#ffffff;gradientColor=none;shape=stencil(bY5bCsIwEEW3EmYBzUQUFSazl0KnZjAmJU197F5Mfyz6ey6ce2gO/SRmriVf5aFDDR40BSlagWnMRS4lL2lgmvoamG75LubpAcG8PDhEsExRU4Nu1x3ObdhixF94OnZ790+yMdv1ddQY18QP+66yrZ/f);strokeColor=#000000;spacingTop=-3;spacingBottom=-3;spacingLeft=-3;spacingRight=-3;labelBackgroundColor=none;rounded=0;html=1;whiteSpace=wrap;" parent="2" vertex="1">
          <mxGeometry x="570" y="160" width="210" height="110" as="geometry" />
        </mxCell>
        <mxCell id="5" value="&lt;font style=&quot;font-size:13px;font-family:Times New Roman;color:#000000;direction:ltr;letter-spacing:0px;line-height:120.00001%;opacity:1&quot;&gt;Объявление переменной типа &lt;br&gt;&lt;/font&gt;&lt;font style=&quot;font-size:13px;font-family:Times New Roman;color:#000000;direction:ltr;letter-spacing:0px;line-height:120.00001%;opacity:1&quot;&gt;int:&lt;/font&gt;&lt;div&gt;&lt;font style=&quot;font-size:13px;font-family:Times New Roman;color:#000000;direction:ltr;letter-spacing:0px;line-height:120.00001%;opacity:1&quot;&gt;cnst2 =&amp;nbsp; 1&lt;/font&gt;&lt;/div&gt;&lt;div&gt;&lt;font style=&quot;font-size:13px;font-family:Times New Roman;color:#000000;direction:ltr;letter-spacing:0px;line-height:120.00001%;opacity:1&quot;&gt;&amp;nbsp;cnst3 = 2&lt;/font&gt;&lt;/div&gt;&lt;div&gt;&lt;font style=&quot;font-size:13px;font-family:Times New Roman;color:#000000;direction:ltr;letter-spacing:0px;line-height:120.00001%;opacity:1&quot;&gt;cnst4 = 3&lt;/font&gt;&lt;/div&gt;" style="verticalAlign=middle;align=center;vsdxID=3;fillColor=#ffffff;gradientColor=none;shape=stencil(bc5BDoQgDIXhq5AeQGCnSeldTKzSyIBBZnRuPxE3Gmf7pXn9cfX9wmotOc28yVC8A4mesxQgHFPmKad3HAiXvnjCV/qw2h0YUF8H1hjQhEFixbZpu+o3PY4e2NnG2n8bt2F9Ph0lhLPwsGuUrvn0Aw==);strokeColor=#000000;spacingTop=-3;spacingBottom=-3;spacingLeft=-3;spacingRight=-3;labelBackgroundColor=none;rounded=0;html=1;whiteSpace=wrap;" parent="2" vertex="1">
          <mxGeometry x="570" y="310" width="210" height="100" as="geometry" />
        </mxCell>
        <mxCell id="8" value="&lt;font style=&quot;font-size:13px;font-family:Times New Roman;color:#000000;direction:ltr;letter-spacing:0px;line-height:120.00001%;opacity:1&quot;&gt;Console.WriteLine(&amp;quot;{1} поклон {4}{0} {2} хозяину {5} хозяйкой{0} {3} добрым людям&amp;quot;, cnst1, cnst2, cnst3, cnst4, cnst5, cnst6, cnst7);&lt;/font&gt;" style="verticalAlign=middle;align=center;vsdxID=6;fillColor=#ffffff;gradientColor=none;shape=stencil(fZDdCgIhEEZfReYFXAVpL9R3EXRTMt1ct+zt86egKLqZgcOB+b7hm1WrQVtO8WRuTmcrwAVrkssg+RKTOaa4By35qrKV/ByvBhUBE6B7m1hy70JHZPoDZ9boZVcaFSLgwCqtm82ACq27WfRLo0+NEDq8D+11Y1wgP1iPgkfyxXk/ajb23gz3H8gH);strokeColor=#000000;spacingTop=-3;spacingBottom=-3;spacingLeft=-3;spacingRight=-3;labelBackgroundColor=none;rounded=0;html=1;whiteSpace=wrap;" parent="2" vertex="1">
          <mxGeometry x="570" y="450" width="210" height="160" as="geometry" />
        </mxCell>
        <mxCell id="9" value="&lt;font style=&quot;font-size:13px;font-family:Times New Roman;color:#000000;direction:ltr;letter-spacing:0px;line-height:120.00001%;opacity:1&quot;&gt;Конец&lt;/font&gt;" style="verticalAlign=middle;align=center;vsdxID=7;fillColor=#ffffff;gradientColor=none;shape=stencil(pZDBDsIgEER/ZbN3UjTpDfiXjd0WIkKzoG3/vmiN8eTF02ZeZieZMcXTzFCq5CsvYajeYkieJVR0ZszCk+R7GpyZqXpnbvnBsFpUGmGz2GvsnCG5gDR47hFkO26TJ/0xwapoDUVJrlRDThYbiyQTq/asxkhT8yOUhXl+y1/R6v/k7ig0hhiP9k/2Xbh7TeN2);strokeColor=#000000;spacingTop=-3;spacingBottom=-3;spacingLeft=-3;spacingRight=-3;labelBackgroundColor=none;rounded=0;html=1;whiteSpace=wrap;" parent="2" vertex="1">
          <mxGeometry x="570" y="650" width="210" height="70" as="geometry" />
        </mxCell>
        <mxCell id="16" style="vsdxID=8;edgeStyle=none;startArrow=none;endArrow=classic;startSize=5;endSize=5;strokeColor=#000000;spacingTop=0;spacingBottom=0;spacingLeft=0;spacingRight=0;verticalAlign=middle;html=1;labelBackgroundColor=#ffffff;rounded=1;exitX=0.5;exitY=1;exitDx=0;exitDy=0;exitPerimeter=0;entryX=0.5;entryY=0;entryDx=0;entryDy=0;entryPerimeter=0" parent="2" source="3" target="4" edge="1">
          <mxGeometry relative="1" as="geometry">
            <mxPoint x="675" y="120" as="sourcePoint" />
            <mxPoint x="675" y="165" as="targetPoint" />
            <Array capacity="4" as="points" />
            <mxPoint y="124" as="offset" />
          </mxGeometry>
        </mxCell>
        <mxCell id="17" style="vsdxID=9;edgeStyle=none;startArrow=none;endArrow=classic;startSize=5;endSize=5;strokeColor=#000000;spacingTop=0;spacingBottom=0;spacingLeft=0;spacingRight=0;verticalAlign=middle;html=1;labelBackgroundColor=#ffffff;rounded=1;exitX=0.5;exitY=1;exitDx=0;exitDy=0;exitPerimeter=0;entryX=0.5;entryY=0;entryDx=0;entryDy=0;entryPerimeter=0" parent="2" source="4" target="5" edge="1">
          <mxGeometry relative="1" as="geometry">
            <mxPoint x="675" y="225" as="sourcePoint" />
            <mxPoint x="675" y="270" as="targetPoint" />
            <Array capacity="4" as="points" />
            <mxPoint y="124" as="offset" />
          </mxGeometry>
        </mxCell>
        <mxCell id="18" style="vsdxID=10;edgeStyle=none;startArrow=none;endArrow=classic;startSize=5;endSize=5;strokeColor=#000000;spacingTop=0;spacingBottom=0;spacingLeft=0;spacingRight=0;verticalAlign=middle;html=1;labelBackgroundColor=#ffffff;rounded=1;entryX=0.5;entryY=0;entryDx=0;entryDy=0;entryPerimeter=0" parent="2" edge="1">
          <mxGeometry relative="1" as="geometry">
            <mxPoint x="675" y="390" as="sourcePoint" />
            <mxPoint x="675" y="390" as="targetPoint" />
            <Array capacity="4" as="points" />
            <mxPoint y="124" as="offset" />
          </mxGeometry>
        </mxCell>
      </root>
    </mxGraphModel>
  </diagram>
</mxfile>
